<svg width="25" height="25" viewBox="0 0 25 25" fill="none" xmlns="http://www.w3.org/2000/svg">
<path d="M7.19874 23.4927C6.63999 23.6462 6.11146 23.5735 5.61313 23.2744C5.11481 22.9754 4.79711 22.5451 4.66004 21.9838L1.95185 10.8446C1.81555 10.2839 1.89328 9.75893 2.18504 9.26986C2.4768 8.78079 2.90308 8.4681 3.46386 8.3318L4.63511 8.03584L5.63292 16.4666C5.76759 17.6045 6.28804 18.5306 7.19426 19.245C8.10048 19.9595 9.12253 20.2493 10.2604 20.1147L19.8808 18.9761C19.8263 19.4021 19.6618 19.7845 19.3872 20.1233C19.1126 20.4621 18.7542 20.6835 18.312 20.7876L7.19874 23.4927ZM10.0156 18.0458C9.44662 18.1131 8.93578 17.9683 8.48306 17.6114C8.03033 17.2545 7.76992 16.7913 7.70181 16.2217L6.35508 4.84281C6.28774 4.27386 6.43287 3.76299 6.79046 3.31018C7.14805 2.85738 7.61094 2.597 8.17911 2.52906L19.558 1.18232C20.127 1.11499 20.6382 1.26007 21.0917 1.61758C21.5452 1.9751 21.8052 2.43802 21.8718 3.00636L23.2185 14.3853C23.2859 14.9542 23.1411 15.4654 22.7843 15.9188C22.4275 16.3722 21.9642 16.6323 21.3945 16.699L10.0156 18.0458ZM13.2812 12.6244L14.9857 11.295L16.9535 12.1897C17.0651 12.2465 17.1644 12.2347 17.2514 12.1545C17.3384 12.0742 17.3572 11.9759 17.3077 11.8593L16.5685 9.82275L18.0066 8.23648C18.0826 8.14007 18.1018 8.04584 18.0644 7.95377C18.0269 7.8617 17.9472 7.81449 17.8252 7.81214L15.6832 7.8821L14.5972 6.01765C14.5504 5.91829 14.4667 5.87575 14.346 5.89003C14.2254 5.90432 14.1539 5.96522 14.1317 6.07275L13.5109 8.1392L11.4117 8.57121C11.293 8.60273 11.2266 8.66759 11.2123 8.76578C11.1981 8.86397 11.2388 8.95076 11.3344 9.02615L13.1031 10.2329L12.8596 12.3858C12.8394 12.5106 12.881 12.6018 12.9843 12.6595C13.0877 12.7172 13.1866 12.7055 13.2812 12.6244Z" fill="white"/>
</svg>
