<svg width="25" height="25" viewBox="0 0 25 25" fill="none" xmlns="http://www.w3.org/2000/svg">
<path d="M15.104 18.2292V7.8125H7.81234C5.35713 7.8125 4.13005 7.8125 3.3665 8.575C2.60296 9.3375 2.604 10.5646 2.604 13.0208V17.1875C2.604 19.6427 2.604 20.8698 3.3665 21.6333C4.129 22.3969 5.35713 22.3958 7.81234 22.3958H10.9373C12.9019 22.3958 13.8832 22.3958 14.4936 21.7854C15.104 21.175 15.104 20.1937 15.104 18.2292Z" stroke="white" stroke-width="2" stroke-linecap="round" stroke-linejoin="round"/>
<path d="M9.89567 7.81258V2.60425H17.1873C19.6425 2.60425 20.8696 2.60425 21.6332 3.36675C22.3957 4.12925 22.3957 5.35737 22.3957 7.81258V11.9792C22.3957 14.4345 22.3967 15.6626 21.6332 16.4251C20.8696 17.1876 19.6425 17.1876 17.1873 17.1876H15.104M9.89567 2.60425L15.104 7.81258M5.729 13.0209H9.37484M5.729 17.1876H11.979" stroke="white" stroke-width="2" stroke-linecap="round" stroke-linejoin="round"/>
</svg>
