<svg width="25" height="25" viewBox="0 0 25 25" fill="none" xmlns="http://www.w3.org/2000/svg">
<path d="M5.97524 21.2909C5.76636 21.2388 5.60375 21.1159 5.48741 20.9223C5.37107 20.7287 5.33894 20.5275 5.39102 20.3186C5.44311 20.1097 5.56595 19.9471 5.75957 19.8307C5.95319 19.7144 6.15436 19.6826 6.36307 19.7354C6.57179 19.7881 6.7344 19.911 6.8509 20.1039C6.96741 20.2969 6.99954 20.4981 6.94729 20.7077C6.89504 20.9172 6.77228 21.0795 6.57899 21.1945C6.38571 21.3095 6.18446 21.3416 5.97524 21.2909ZM9.53031 21.9303C9.41397 21.7367 9.38184 21.5355 9.43392 21.3266C9.486 21.1177 9.60885 20.9551 9.80247 20.8388C9.99592 20.7231 10.1971 20.6913 10.406 20.7434C10.6149 20.7955 10.7775 20.9183 10.8938 21.1119C11.0101 21.3055 11.0423 21.5068 10.9902 21.7157C10.9381 21.9246 10.8153 22.0868 10.6219 22.2025C10.4284 22.3182 10.2272 22.3503 10.0181 22.2989C9.80909 22.2475 9.64648 22.1246 9.53031 21.9303ZM13.5732 22.9383C13.4569 22.7447 13.4247 22.5435 13.4768 22.3346C13.5289 22.1257 13.6518 21.9631 13.8454 21.8468C14.0388 21.7311 14.24 21.6993 14.4489 21.7514C14.6578 21.8035 14.8204 21.9263 14.9367 22.1199C15.053 22.3136 15.0852 22.5148 15.0331 22.7237C14.981 22.9326 14.8582 23.0948 14.6648 23.2105C14.4713 23.3262 14.2701 23.3583 14.061 23.3069C13.852 23.2555 13.6894 23.1326 13.5732 22.9383ZM14.5686 6.5754C14.7542 6.46277 14.8744 6.29629 14.9293 6.07595C14.9843 5.85561 14.9561 5.65284 14.8448 5.46764C14.7315 5.28194 14.5647 5.16162 14.3444 5.10668C14.124 5.05175 13.9209 5.07983 13.735 5.19095C13.5495 5.30357 13.4292 5.47039 13.3741 5.6914C13.319 5.91242 13.3478 6.11535 13.4606 6.30021C13.5734 6.48508 13.7399 6.60531 13.9601 6.66092C14.1802 6.71653 14.3833 6.68845 14.5694 6.57666M19.8457 5.23837L19.3097 7.38818C19.5189 7.43891 19.6739 7.56379 19.7745 7.7628C19.8752 7.96182 19.9001 8.16485 19.8492 8.37187L19.5266 9.6656C19.4752 9.87179 19.3583 10.0394 19.1758 10.1686C18.9928 10.2969 18.7974 10.334 18.5897 10.2801L16.6287 18.1456C16.5168 18.5943 16.261 18.9385 15.8613 19.1781C15.4616 19.4177 15.0373 19.4819 14.5883 19.3707L7.35761 17.5678C6.90885 17.4559 6.56468 17.2002 6.32509 16.8005C6.0855 16.4008 6.02123 15.9768 6.13228 15.5285L9.35034 2.62158C9.46223 2.17282 9.71769 1.82856 10.1167 1.5888C10.5157 1.34904 10.94 1.28486 11.3896 1.39624L18.6204 3.19906C19.0691 3.31095 19.4133 3.56674 19.6529 3.96644C19.8925 4.36613 19.9568 4.79011 19.8457 5.23837Z" fill="white"/>
</svg>
