<svg width="25" height="25" viewBox="0 0 25 25" fill="none" xmlns="http://www.w3.org/2000/svg">
<path d="M6.25 22.9166C5.67708 22.9166 5.18681 22.7128 4.77917 22.3051C4.37153 21.8975 4.16736 21.4069 4.16667 20.8333V18.7499C3.87153 18.7499 3.62431 18.6499 3.425 18.4499C3.22569 18.2499 3.12569 18.0027 3.125 17.7083C3.125 17.4305 3.25104 17.2353 3.50312 17.1228C3.75521 17.0103 3.97639 16.8583 4.16667 16.6666V13.5416C3.87153 13.5416 3.62431 13.4416 3.425 13.2416C3.22569 13.0416 3.12569 12.7944 3.125 12.4999C3.125 12.2221 3.25104 12.027 3.50312 11.9145C3.75521 11.802 3.97639 11.6499 4.16667 11.4583V8.33325C3.87153 8.33325 3.62431 8.23325 3.425 8.03325C3.22569 7.83325 3.12569 7.58603 3.125 7.29159C3.125 7.01381 3.25104 6.81867 3.50312 6.70617C3.75521 6.59367 3.97639 6.44159 4.16667 6.24992V4.16659C4.16667 3.59367 4.37083 3.10339 4.77917 2.69575C5.1875 2.28811 5.67778 2.08395 6.25 2.08325H18.75C19.3229 2.08325 19.8135 2.28742 20.2219 2.69575C20.6302 3.10409 20.834 3.59436 20.8333 4.16659V20.8333C20.8333 21.4062 20.6295 21.8968 20.2219 22.3051C19.8142 22.7135 19.3236 22.9173 18.75 22.9166H6.25ZM9.89583 13.5416V16.927C9.89583 17.1527 9.96979 17.3395 10.1177 17.4874C10.2656 17.6353 10.4521 17.7089 10.6771 17.7083C10.9021 17.7076 11.0889 17.6336 11.2375 17.4864C11.3861 17.3392 11.4597 17.1527 11.4583 16.927V13.5416C11.9097 13.4201 12.283 13.1728 12.5781 12.7999C12.8733 12.427 13.0208 12.0058 13.0208 11.5364V7.81242C13.0208 7.67353 12.9688 7.552 12.8646 7.44784C12.7604 7.34367 12.6389 7.29159 12.5 7.29159C12.3611 7.29159 12.2396 7.34367 12.1354 7.44784C12.0312 7.552 11.9792 7.67353 11.9792 7.81242V11.2239H11.1979V7.81242C11.1979 7.67353 11.1458 7.552 11.0417 7.44784C10.9375 7.34367 10.816 7.29159 10.6771 7.29159C10.5382 7.29159 10.4167 7.34367 10.3125 7.44784C10.2083 7.552 10.1563 7.67353 10.1563 7.81242V11.2239H9.375V7.81242C9.375 7.67353 9.32292 7.552 9.21875 7.44784C9.11458 7.34367 8.99306 7.29159 8.85417 7.29159C8.71528 7.29159 8.59375 7.34367 8.48958 7.44784C8.38542 7.552 8.33333 7.67353 8.33333 7.81242V11.5364C8.33333 12.0051 8.4809 12.4263 8.77604 12.7999C9.07118 13.1735 9.44445 13.4208 9.89583 13.5416ZM15.625 13.5416V16.927C15.625 17.1527 15.699 17.3395 15.8469 17.4874C15.9948 17.6353 16.1813 17.7089 16.4063 17.7083C16.6313 17.7076 16.8181 17.6336 16.9667 17.4864C17.1153 17.3392 17.1889 17.1527 17.1875 16.927V7.89054C17.1875 7.69957 17.1226 7.552 16.9927 7.44784C16.8628 7.34367 16.6934 7.29159 16.4844 7.29159C16.2587 7.29159 16.0115 7.35235 15.7427 7.47388C15.474 7.59541 15.2177 7.7777 14.974 8.02075C14.6788 8.31589 14.4531 8.65027 14.2969 9.02388C14.1406 9.39749 14.0625 9.80096 14.0625 10.2343V12.4999C14.0625 12.7951 14.1625 13.0426 14.3625 13.2426C14.5625 13.4426 14.8097 13.5423 15.1042 13.5416H15.625Z" fill="white"/>
</svg>
