<svg width="33" height="33" viewBox="0 0 33 33" fill="none" xmlns="http://www.w3.org/2000/svg">
<g clip-path="url(#clip0_43_489)">
<path d="M23.1088 22.4374C22.8339 22.5449 22.5672 22.5418 22.3088 22.4281C22.0503 22.3144 21.8672 22.1206 21.7593 21.8466L19.8627 16.9959C19.7552 16.721 19.7583 16.4543 19.872 16.1959C19.9857 15.9374 20.1795 15.7543 20.4535 15.6464L25.3042 13.7498C25.5791 13.6423 25.8461 13.6453 26.1052 13.7587C26.3643 13.8721 26.5471 14.0661 26.6537 14.3406L28.5503 19.1913C28.6578 19.4662 28.6548 19.7332 28.5414 19.9923C28.4279 20.2514 28.234 20.4342 27.9595 20.5408L23.1088 22.4374ZM15.8143 15.2234C15.5394 15.3309 15.2727 15.3278 15.0143 15.2141C14.7558 15.1004 14.5727 14.9066 14.4648 14.6326L12.5681 9.78187C12.4607 9.50699 12.4638 9.24033 12.5775 8.98188C12.6912 8.72343 12.885 8.54027 13.159 8.4324L21.8903 5.01846C22.1651 4.91098 22.4321 4.91396 22.6912 5.0274C22.9503 5.14084 23.1332 5.3348 23.2397 5.60928L25.1364 10.46C25.2439 10.7349 25.2409 11.0019 25.1274 11.261C25.014 11.5201 24.82 11.7029 24.5456 11.8095L15.8143 15.2234ZM10.4969 27.3687C10.222 27.4761 9.95535 27.473 9.6969 27.3593C9.43845 27.2456 9.25529 27.0518 9.14742 26.7778L7.25078 21.9271C7.14331 21.6522 7.14642 21.3856 7.26011 21.1271C7.3738 20.8687 7.56763 20.6855 7.8416 20.5776L16.5729 17.1637C16.8478 17.0562 17.1148 17.0592 17.3739 17.1726C17.633 17.2861 17.8158 17.48 17.9224 17.7545L19.819 22.6052C19.9265 22.8801 19.9235 23.1471 19.8101 23.4062C19.6966 23.6653 19.5027 23.8481 19.2282 23.9547L10.4969 27.3687ZM7.08295 18.6373C6.80808 18.7448 6.54141 18.7417 6.28296 18.628C6.02451 18.5143 5.84135 18.3205 5.73348 18.0465L3.83685 13.1958C3.72937 12.9209 3.73248 12.6543 3.84617 12.3958C3.95986 12.1374 4.15369 11.9542 4.42766 11.8463L9.27839 9.9497C9.55326 9.84223 9.82025 9.84521 10.0793 9.95865C10.3384 10.0721 10.5213 10.266 10.6279 10.5405L12.5245 15.3912C12.632 15.6661 12.629 15.9331 12.5156 16.1922C12.4021 16.4513 12.2082 16.6341 11.9337 16.7407L7.08295 18.6373Z" fill="white"/>
</g>
<defs>
<clipPath id="clip0_43_489">
<rect width="25" height="25" fill="white" transform="translate(0 9.10384) rotate(-21.3555)"/>
</clipPath>
</defs>
</svg>
