<svg width="25" height="25" viewBox="0 0 25 25" fill="none" xmlns="http://www.w3.org/2000/svg">
<path d="M22.3645 4.53125L20.9687 3.94792V13.3542L23.4999 7.25C23.927 6.1875 23.4374 4.96875 22.3645 4.53125ZM2.05199 8.38542L7.21866 20.8333C7.3708 21.2121 7.63031 21.5381 7.96529 21.7713C8.30026 22.0044 8.69608 22.1346 9.10408 22.1458C9.37491 22.1458 9.65616 22.0938 9.92699 21.9792L17.6041 18.8021C18.3853 18.4792 18.8645 17.7083 18.8853 16.9375C18.8957 16.6667 18.8437 16.3646 18.7499 16.0938L13.5416 3.64583C13.3948 3.26428 13.1364 2.93587 12.8 2.70357C12.4636 2.47126 12.065 2.34585 11.6562 2.34375C11.3853 2.34375 11.1145 2.40625 10.8541 2.5L3.18741 5.67708C2.67779 5.88578 2.2719 6.28831 2.05898 6.79618C1.84607 7.30405 1.84355 7.87569 2.05199 8.38542ZM18.8749 4.42708C18.8749 3.87455 18.6554 3.34464 18.2647 2.95394C17.874 2.56324 17.3441 2.34375 16.7916 2.34375H15.2812L18.8749 11.0313" fill="white"/>
</svg>
