<?xml version="1.0" encoding="UTF-8"?>
<svg id="katman_2" data-name="katman 2" xmlns="http://www.w3.org/2000/svg" viewBox="0 0 1212.07 647.02">
  <g id="Katman_1-2" data-name="Katman 1">
    <g>
      <path d="M542.54,229.59c-2.28,69.14-23.75,129.77-73.58,177.49-44.44,42.57-97.67,55.69-156.92,36.75-74.14-23.7-123.67-72.89-145.61-147.81-12.24-41.78-10.68-83.83,7.97-123.87,17.73-38.08,47.63-60.77,90.17-62.73,43.7-2.01,76.85,16.97,97.8,55.76,15.27,28.27,19.01,58.98,16.96,90.46-1.98,30.25-10.88,58.69-25.02,85.49-3.46,6.57-5.68,7.61-12.86,5.51-21.57-6.31-40.38-17.09-55.22-34.26-5.53-6.4-5.92-7.99-2.13-15.58,12.42-24.87,14.67-50.9,8.69-77.76-1.03-4.63-3.08-9.12-5.23-13.4-3.61-7.18-9.4-11.73-17.73-11.79-8.61-.06-14.88,4.27-19.05,11.62-5.2,9.17-7.05,19.3-8.1,29.62-6.09,60.16,33.61,104.06,76.72,122.27,14.76,6.23,29.95,10.55,46.04,9.42,22.8-1.6,41.2-12.43,56.05-29.31,20.04-22.79,31.28-49.76,35.12-79.63,8.44-65.64-13.86-121.29-56.44-170.12-6.99-8.01-14.96-15.34-20.89-24.06-11.63-17.1-7.91-39.87,7.57-53.3,15.57-13.52,39.09-13.99,54.47-.46,17.22,15.15,31.29,33.1,44.42,51.82,29.08,41.5,47.75,87.11,54.26,137.47,1.34,10.38,1.78,20.88,2.56,30.38Z"/>
      <path d="M1035.64,396.55c-45.66-.32-87.91-11.16-124.07-40.05-34.19-27.32-58.32-61.39-66.51-105.2-5.37-28.71,.51-55.95,12.88-81.86,20.39-42.69,54.78-69.88,98.12-86.7,29.26-11.35,59.27-15.79,89.98-6.88,31.79,9.23,56.75,27.2,68.66,59.33,11.38,30.7,6.13,59.99-10.15,87.63-14.01,23.79-33.83,42.23-55.6,58.74-5.17,3.92-10.31,8.03-16,11.04-3.57,1.89-8.35,3.15-12.22,2.5-23.37-3.95-43.99-13.82-61.16-30.42-7.6-7.35-7.45-11.33,1.09-17.5,19.84-14.36,39.45-29.02,56.55-46.65,6.12-6.31,12.02-12.98,17.03-20.17,10.08-14.48,5.43-25.24-11.93-28.23-16.4-2.82-31.78,1.03-46.36,8.44-18.05,9.18-33.02,21.74-42.65,39.95-15.24,28.83-10.2,57.77,14.19,79.5,29.5,26.28,64.63,36.02,103.4,33.87,33.4-1.85,62.11-14.79,86.13-38.14,8.57-8.33,18.5-14.36,30.76-14.99,17.24-.89,30.74,6.2,38.71,21.47,8.32,15.95,7.67,32.5-4.08,46.32-7.73,9.09-17.63,16.73-27.61,23.45-36.09,24.31-75.9,38.99-119.31,43.44-6.62,.68-13.3,.75-19.84,1.1Z"/>
      <path d="M775.11,400.34c-44.21,.42-86.35-8.26-124.98-30.58-33.99-19.64-60.87-46.26-77.78-82.06-20.02-42.39-17.05-84.62,5.15-124.73,30.42-54.96,79.12-84.13,140.74-91.46,30.07-3.58,58.51,3.39,82.9,22.16,28.02,21.56,38.81,50.8,34.51,85.43-3.94,31.73-20.87,56.86-43.61,78.09-13.59,12.69-28.66,23.79-43.02,35.66-5.37,4.44-11.31,5.13-17.82,3.32-21.7-6.03-40.13-17.54-55.88-33.45-4.81-4.85-4.28-9.67,1.21-13.96,20.99-16.4,42.27-32.51,60.41-52.16,5.49-5.94,10.46-12.57,14.54-19.54,6.36-10.84,2.46-19.3-9.69-22.89-12.14-3.59-24.23-2.26-35.9,1.63-30.92,10.31-53.67,29.25-61.82,62.12-4.95,19.94-.48,38.2,13.37,53.44,24.16,26.56,54.68,41.34,90.02,46.05,29.78,3.97,59.1,.43,88.02-7.19,9.6-2.53,10.01-2.45,15.33,6.04,11.5,18.37,25.82,34.25,42.37,48.17,6.68,5.62,6.27,9.58-1.88,13-30.95,13.02-63.17,20.84-96.72,22.84-6.47,.39-12.98,.06-19.47,.06Z"/>
      <path d="M0,227.61c1.71-43.76,12.8-84.56,32.46-123.02C49.89,70.5,72.87,40.42,99.78,13.3,113.79-.83,132.4-3.72,148.54,5.45c16.2,9.2,23.74,28.01,18.85,46.91-2.23,8.62-6.87,15.79-13.11,22.04-18.92,18.93-35.9,39.34-48.19,63.33-20.84,40.7-29.38,83.46-20.04,128.68,6.19,29.95,19.95,56.37,41.58,78.31,12.72,12.9,28.31,20.28,46.24,22.57,4.47,.57,7.61,2.45,10.33,6.04,15.54,20.6,33.66,38.6,54.64,53.73,2.44,1.76,5.64,5.35,5.22,7.44-.52,2.6-4.07,5.52-6.94,6.59-46.04,17.2-90.67,13.44-133.16-10.9-40.86-23.42-67.15-59.43-84.88-102.21C5.71,295.72-.07,261.95,0,227.61Z"/>
      <path d="M605.06,598.04c3.15-9.57,6.3-19.14,9.45-28.7,1.87-5.69,3.68-11.4,5.62-17.07,2.3-6.73,8-10.77,15.11-10.85,7.11-.08,12.57,3.84,14.91,11,4.44,13.6,8.75,27.24,13.13,40.86,.5,1.56,1.07,3.1,2.08,5.98,1-2.7,1.67-4.26,2.18-5.88,4.37-13.96,8.67-27.95,13.07-41.9,2.74-8.67,9.13-13.15,16.63-11.86,9.36,1.62,14.03,9.98,10.64,19.67-5.22,14.9-10.7,29.72-16.06,44.57-3.73,10.32-7.39,20.67-11.21,30.96-2.91,7.84-7.71,11.14-15.39,10.89-7.4-.24-11.82-3.78-14.41-11.54-4.74-14.2-9.46-28.41-14.2-42.61-.4-1.2-.92-2.35-1.72-4.37-4.58,13.23-8.87,25.62-13.15,38.01-1.19,3.46-2.27,6.96-3.54,10.39-2.43,6.55-7.64,10.19-14.46,10.24-7.21,.06-12.51-3.38-14.95-10.23-9.23-25.86-18.39-51.74-27.46-77.65-2.79-7.99,.63-15.04,8.19-17.72,7.82-2.78,15.69,.67,18.52,8.83,4.31,12.41,8.1,25,12.12,37.52,1.22,3.79,2.46,7.58,3.69,11.37,.4,.04,.8,.07,1.2,.11Z"/>
      <path d="M398.83,603.53c5.39,15.05,21.52,21.65,37.67,16.01,2.94-1.03,5.73-2.65,8.34-4.38,6.7-4.43,15.01-3.65,19.24,2.03,4.68,6.28,3.21,13.73-3.94,19.07-11.33,8.46-24.43,11.05-38.17,10.75-26.9-.59-48.12-17.96-53.26-43.24-7.39-36.38,21.08-68.39,58.49-65.78,26.85,1.88,46.21,20.34,49.26,47.02,.21,1.81,.22,3.66,.12,5.48-.44,8.29-5.04,12.85-13.35,12.9-19.47,.13-38.94,.11-58.41,.14-1.79,0-3.58,0-6,0Zm48.16-21.97c-1.89-10.85-11.32-17.62-23.78-17.6-12.06,.02-22.64,7.53-24.32,17.6h48.1Z"/>
      <path d="M964.45,590.09c9.89,10.93,19.29,21.26,28.6,31.66,1.65,1.84,3.34,3.8,4.35,6,2.69,5.9,.69,12.57-4.4,15.91-6.1,4-15,2.91-20.03-2.77-8.94-10.09-17.72-20.32-26.55-30.5-.96-1.11-1.83-2.3-2.63-3.3-4.17,2.14-5.32,5.01-5.15,8.9,.23,5.31,.1,10.65-.03,15.97-.21,8.53-5.8,13.97-14.28,14.06-8.41,.08-14-5.36-14.02-14.12-.06-40.77-.04-81.55,.02-122.32,.01-8.53,5.75-14.23,14-14.3,8.54-.07,14.26,5.51,14.31,14.42,.11,18.64,.03,37.28,.03,55.92,0,3.78,0,7.56,0,11.34,.5,.23,.99,.47,1.49,.7,6.2-6.41,12.4-12.83,18.62-19.23,4.64-4.77,9.23-9.6,14-14.24,4.5-4.38,9.88-5.99,16.05-4.12,10.06,3.06,12.9,14.41,5.35,21.7-9.69,9.34-19.49,18.58-29.72,28.31Z"/>
      <path d="M767.1,537.93c30.2-.48,54.25,22.94,54.94,53.5,.69,30.48-23.14,54.98-54.02,55.53-30.65,.55-55.36-22.76-55.77-52.6-.43-31.69,23.12-55.92,54.85-56.43Zm26.44,54.43c.05-15.04-11.26-27.1-25.43-27.11-15.28-.01-26.79,11.7-26.93,27.41-.14,14.89,11.16,26.66,25.75,26.84,14.88,.19,26.55-11.72,26.61-27.14Z"/>
      <path d="M286.99,548.42c14.27-12.43,30.26-13.52,46.47-6.62,15.59,6.64,21.86,20.3,22.17,36.64,.33,17.48,.14,34.96,.1,52.45-.02,9.3-5.84,15.21-14.78,15.22-8.41,0-14.05-6.04-14.1-15.34-.08-15.32,0-30.64-.07-45.95-.05-11.49-6.36-18.76-16.9-19.67-11.17-.97-20.35,5.5-22.12,16.37-.96,5.86-.75,11.92-.82,17.9-.12,10.65,.02,21.31-.07,31.97-.07,8.65-5.91,14.54-14.32,14.63-8.52,.09-14.13-5.51-14.17-14.57-.12-24.81-.1-49.62-.13-74.42-.01-10.07,2.74-14.88,9.73-17.05,7.18-2.23,13.53,.56,19,8.45Z"/>
      <path d="M498.83,538.99c0-4.77-.02-9.24,0-13.7,.05-9.77,5.74-16.08,14.52-16.12,8.48-.05,14.21,6.53,14.23,16.35,.01,4.31,0,8.63,0,13.86,3.52,0,6.76-.13,9.98,.03,8.36,.41,14.13,6.03,14.26,13.73,.13,7.9-4.82,13.3-12.74,13.68-3.61,.17-7.24,.03-11.48,.03,0,9.37,0,18.14,0,26.9,0,4.33-.02,8.65,.04,12.98,.12,8.64,3.24,11.99,11.91,12.68,5.28,.42,9.28,2.72,11.29,7.68,2.09,5.15,1.91,10.41-2.22,14.37-2.23,2.15-5.7,4.23-8.6,4.22-7.05-.03-14.43-.23-21.07-2.31-13.28-4.17-19.87-14.95-20.04-30.65-.16-14.95-.04-29.91-.04-45.47-6.16-.32-12.65,.02-16.11-5.93-1.5-2.59-2.46-5.95-2.37-8.92,.26-8.54,5.27-12.09,18.41-13.42Z"/>
      <path d="M863.61,550.67c5.03-6.21,10.66-10.36,18.16-11.51,8.95-1.37,14.75,2.64,16.2,11.27,1.42,8.43-3.31,15.41-11.72,16.69-11.43,1.74-19.57,7.3-22.38,18.92-.84,3.49-.61,7.26-.63,10.91-.08,11.31,.04,22.62-.09,33.93-.1,8.67-5.42,14.51-13.43,15.14-8.96,.7-15.31-5.15-15.33-14.35-.06-25.78-.05-51.55,0-77.33,.01-8.02,4.19-13.29,11.41-14.76,7.04-1.44,13.54,1.94,16.71,8.69,.27,.58,.54,1.17,1.12,2.41Z"/>
    </g>
  </g>
</svg>