<?xml version="1.0" encoding="UTF-8"?>
<svg id="katman_2" data-name="katman 2" xmlns="http://www.w3.org/2000/svg" viewBox="0 0 1536.24 1019.23">
  <defs>
    <style>
      .cls-1 {
        fill: #fff;
      }
    </style>
  </defs>
  <g id="Katman_1-2" data-name="Katman 1">
    <path d="M769.42,.17c135.57,0,271.14-.14,406.71,.1,36.36,.06,71.28,8.68,104.92,21.83,99,38.71,169.59,107.94,215.92,202.8,18.23,37.32,29.84,76.73,35.68,117.76,2.1,14.79,3.22,29.83,3.28,44.77,.32,81.75,.47,163.5,.08,245.24-.29,60.3-16.36,116.86-43.14,170.53-27.57,55.25-66,101.78-114.67,139.72-48.54,37.84-103.13,62.46-164.01,72.23-15.86,2.55-32.1,3.87-48.17,3.88-264.48,.23-528.96,.15-793.43,.19-46.61,0-91.17-9.88-133.65-28.58-87.11-38.34-150.78-101.55-194.44-185.47-21.74-41.78-35.75-86.13-41.69-132.87-1.76-13.82-2.54-27.86-2.59-41.8C-.03,553.59,.43,476.67,0,399.75c-.37-66.72,15.16-129.45,45.96-188.37C88.72,129.56,151.53,68.25,235.81,29.92,279.3,10.14,325.12-.08,373.2,0c132.07,.22,264.14,.08,396.22,.08v.1Zm-57.8,441.6c-.78-9.5-1.22-19.99-2.56-30.38-6.51-50.36-25.18-95.97-54.26-137.47-13.12-18.73-27.2-36.67-44.42-51.82-15.38-13.54-38.9-13.06-54.47,.46-15.47,13.44-19.2,36.21-7.57,53.3,5.93,8.72,13.9,16.05,20.89,24.06,42.58,48.82,64.88,104.47,56.44,170.12-3.84,29.87-15.07,56.84-35.12,79.63-14.84,16.88-33.25,27.71-56.05,29.31-16.09,1.13-31.28-3.19-46.04-9.42-43.11-18.2-82.81-62.11-76.72-122.27,1.04-10.32,2.89-20.45,8.1-29.62,4.17-7.35,10.44-11.68,19.05-11.62,8.33,.06,14.13,4.61,17.73,11.79,2.15,4.27,4.2,8.77,5.23,13.4,5.98,26.86,3.72,52.89-8.69,77.76-3.79,7.59-3.41,9.18,2.13,15.58,14.85,17.18,33.66,27.96,55.22,34.26,7.18,2.1,9.4,1.06,12.86-5.51,14.14-26.8,23.04-55.24,25.02-85.49,2.06-31.49-1.69-62.19-16.96-90.46-20.95-38.8-54.1-57.77-97.8-55.76-42.54,1.96-72.44,24.65-90.17,62.73-18.64,40.04-20.21,82.09-7.97,123.87,21.94,74.92,71.47,124.11,145.61,147.81,59.26,18.94,112.48,5.82,156.92-36.75,49.83-47.73,71.3-108.35,73.58-177.49Zm493.1,166.96c6.55-.35,13.23-.43,19.84-1.1,43.41-4.45,83.21-19.13,119.31-43.44,9.98-6.72,19.88-14.36,27.61-23.45,11.75-13.82,12.4-30.37,4.08-46.32-7.97-15.27-21.47-22.35-38.71-21.47-12.25,.63-22.18,6.65-30.76,14.99-24.02,23.35-52.73,36.28-86.13,38.14-38.77,2.15-73.9-7.59-103.4-33.87-24.39-21.73-29.43-50.66-14.19-79.5,9.63-18.22,24.6-30.77,42.65-39.95,14.58-7.42,29.96-11.26,46.36-8.44,17.36,2.98,22.01,13.75,11.93,28.23-5.01,7.19-10.91,13.87-17.03,20.17-17.1,17.63-36.7,32.29-56.55,46.65-8.53,6.17-8.69,10.15-1.09,17.5,17.17,16.6,37.78,26.47,61.16,30.42,3.87,.65,8.66-.61,12.22-2.5,5.69-3.01,10.83-7.12,16-11.04,21.77-16.51,41.59-34.95,55.6-58.74,16.28-27.65,21.53-56.93,10.15-87.63-11.91-32.12-36.87-50.1-68.66-59.33-30.71-8.91-60.72-4.47-89.98,6.88-43.34,16.82-77.73,44.01-98.12,86.7-12.37,25.91-18.25,53.15-12.88,81.86,8.19,43.82,32.31,77.88,66.51,105.2,36.16,28.89,78.41,39.74,124.07,40.05Zm-260.53,3.78c6.49,0,13,.33,19.47-.06,33.55-2.01,65.77-9.83,96.72-22.84,8.14-3.43,8.56-7.38,1.88-13-16.55-13.92-30.87-29.8-42.37-48.17-5.31-8.49-5.73-8.57-15.33-6.04-28.91,7.61-58.24,11.16-88.02,7.19-35.34-4.71-65.87-19.49-90.02-46.05-13.86-15.24-18.32-33.5-13.37-53.44,8.16-32.87,30.9-51.81,61.82-62.12,11.67-3.89,23.76-5.21,35.9-1.63,12.15,3.59,16.05,12.04,9.69,22.89-4.09,6.97-9.06,13.6-14.54,19.54-18.15,19.65-39.42,35.76-60.41,52.16-5.49,4.29-6.02,9.1-1.21,13.96,15.75,15.91,34.18,27.43,55.88,33.45,6.5,1.81,12.45,1.12,17.82-3.32,14.36-11.87,29.43-22.97,43.02-35.66,22.74-21.23,39.67-46.36,43.61-78.09,4.3-34.63-6.49-63.86-34.51-85.43-24.39-18.77-52.83-25.74-82.9-22.16-61.62,7.34-110.32,36.51-140.74,91.46-22.2,40.11-25.17,82.34-5.15,124.73,16.91,35.8,43.78,62.42,77.78,82.06,38.63,22.32,80.78,31,124.98,30.58ZM169.07,439.79c-.07,34.34,5.71,68.11,19.08,100.37,17.72,42.79,44.02,78.79,84.88,102.21,42.49,24.35,87.11,28.11,133.16,10.9,2.88-1.07,6.42-3.99,6.94-6.59,.42-2.09-2.78-5.68-5.22-7.44-20.98-15.13-39.09-33.13-54.64-53.73-2.71-3.59-5.86-5.47-10.33-6.04-17.93-2.29-33.53-9.67-46.24-22.57-21.63-21.94-35.39-48.36-41.58-78.31-9.34-45.22-.8-87.98,20.04-128.68,12.29-23.99,29.26-44.4,48.19-63.33,6.25-6.25,10.88-13.41,13.11-22.04,4.9-18.9-2.65-37.7-18.85-46.91-16.14-9.17-34.75-6.28-48.76,7.84-26.91,27.13-49.89,57.21-67.32,91.29-19.66,38.46-30.76,79.26-32.46,123.02Zm605.06,370.44c-.4-.04-.8-.07-1.2-.11-1.23-3.79-2.47-7.57-3.69-11.37-4.02-12.51-7.81-25.11-12.12-37.52-2.83-8.16-10.7-11.6-18.52-8.83-7.56,2.69-10.99,9.73-8.19,17.72,9.06,25.92,18.23,51.79,27.46,77.65,2.44,6.85,7.74,10.29,14.95,10.23,6.82-.06,12.03-3.69,14.46-10.24,1.27-3.43,2.35-6.93,3.54-10.39,4.28-12.39,8.57-24.78,13.15-38.01,.8,2.02,1.32,3.18,1.72,4.37,4.74,14.2,9.47,28.41,14.2,42.61,2.59,7.77,7.01,11.3,14.41,11.54,7.68,.25,12.48-3.05,15.39-10.89,3.81-10.29,7.48-20.64,11.21-30.96,5.37-14.85,10.84-29.66,16.06-44.57,3.39-9.68-1.28-18.05-10.64-19.67-7.5-1.29-13.89,3.19-16.63,11.86-4.41,13.95-8.7,27.94-13.07,41.9-.51,1.61-1.17,3.18-2.18,5.88-1-2.88-1.57-4.42-2.08-5.98-4.38-13.62-8.69-27.26-13.13-40.86-2.34-7.16-7.8-11.08-14.91-11-7.11,.08-12.82,4.12-15.11,10.85-1.94,5.67-3.75,11.38-5.62,17.07-3.15,9.57-6.3,19.14-9.45,28.7Zm-206.24,5.49c2.42,0,4.21,0,6,0,19.47-.04,38.94-.02,58.41-.14,8.31-.05,12.91-4.62,13.35-12.9,.1-1.82,.09-3.67-.12-5.48-3.05-26.68-22.42-45.14-49.26-47.02-37.41-2.62-65.88,29.4-58.49,65.78,5.14,25.28,26.36,42.65,53.26,43.24,13.74,.3,26.85-2.29,38.17-10.75,7.15-5.34,8.61-12.79,3.94-19.07-4.23-5.68-12.54-6.46-19.24-2.03-2.61,1.73-5.4,3.35-8.34,4.38-16.15,5.64-32.28-.96-37.67-16.01Zm565.63-13.44c10.23-9.74,20.03-18.97,29.72-28.31,7.55-7.28,4.71-18.64-5.35-21.7-6.16-1.87-11.54-.27-16.05,4.12-4.77,4.64-9.36,9.47-14,14.24-6.22,6.4-12.41,12.82-18.62,19.23-.5-.23-.99-.47-1.49-.7,0-3.78,0-7.56,0-11.34,0-18.64,.08-37.28-.03-55.92-.05-8.91-5.77-14.5-14.31-14.42-8.24,.07-13.98,5.77-14,14.3-.07,40.77-.08,81.55-.02,122.32,.01,8.76,5.61,14.2,14.02,14.12,8.48-.08,14.07-5.53,14.28-14.06,.13-5.32,.26-10.66,.03-15.97-.17-3.89,.99-6.76,5.15-8.9,.8,1,1.67,2.19,2.63,3.3,8.83,10.18,17.61,20.41,26.55,30.5,5.04,5.68,13.93,6.78,20.03,2.77,5.09-3.34,7.09-10.01,4.4-15.91-1.01-2.21-2.7-4.17-4.35-6-9.31-10.4-18.71-20.73-28.6-31.66Zm-197.35-52.16c-31.73,.5-55.28,24.74-54.85,56.43,.41,29.84,25.12,53.15,55.77,52.6,30.87-.55,54.71-25.05,54.02-55.53-.69-30.57-24.74-53.98-54.94-53.5Zm-480.11,10.49c-5.47-7.89-11.82-10.68-19-8.45-6.99,2.17-9.74,6.99-9.73,17.05,.03,24.81,.01,49.62,.13,74.42,.04,9.06,5.65,14.67,14.17,14.57,8.41-.09,14.25-5.98,14.32-14.63,.09-10.66-.05-21.31,.07-31.97,.07-5.98-.14-12.04,.82-17.9,1.77-10.88,10.95-17.34,22.12-16.37,10.54,.91,16.85,8.18,16.9,19.67,.07,15.32,0,30.64,.07,45.95,.05,9.31,5.69,15.35,14.1,15.34,8.94,0,14.76-5.92,14.78-15.22,.04-17.48,.23-34.97-.1-52.45-.31-16.34-6.59-30-22.17-36.64-16.22-6.91-32.2-5.81-46.47,6.62Zm211.84-9.43c-13.15,1.33-18.15,4.89-18.41,13.42-.09,2.97,.86,6.33,2.37,8.92,3.45,5.94,9.95,5.6,16.11,5.93,0,15.56-.13,30.52,.04,45.47,.17,15.7,6.76,26.48,20.04,30.65,6.64,2.08,14.02,2.28,21.07,2.31,2.9,.01,6.37-2.07,8.6-4.22,4.12-3.96,4.31-9.22,2.22-14.37-2.01-4.97-6.01-7.26-11.29-7.68-8.68-.69-11.79-4.04-11.91-12.68-.06-4.32-.04-8.65-.04-12.98,0-8.77,0-17.53,0-26.9,4.24,0,7.87,.14,11.48-.03,7.91-.38,12.87-5.78,12.74-13.68-.13-7.7-5.9-13.32-14.26-13.73-3.23-.16-6.46-.03-9.98-.03,0-5.23,.01-9.55,0-13.86-.03-9.83-5.75-16.4-14.23-16.35-8.78,.05-14.47,6.35-14.52,16.12-.02,4.47,0,8.93,0,13.7Zm364.78,11.68c-.57-1.24-.84-1.83-1.12-2.41-3.18-6.75-9.67-10.13-16.71-8.69-7.22,1.48-11.4,6.74-11.41,14.76-.05,25.78-.05,51.55,0,77.33,.02,9.2,6.37,15.05,15.33,14.35,8.01-.63,13.32-6.47,13.43-15.14,.13-11.31,.01-22.62,.09-33.93,.03-3.65-.21-7.43,.63-10.91,2.81-11.62,10.95-17.18,22.38-18.92,8.41-1.28,13.14-8.25,11.72-16.69-1.45-8.63-7.25-12.64-16.2-11.27-7.5,1.15-13.13,5.3-18.16,11.51Z"/>
    <path class="cls-1" d="M711.61,441.78c-2.28,69.14-23.75,129.77-73.58,177.49-44.44,42.57-97.67,55.69-156.92,36.75-74.14-23.7-123.67-72.89-145.61-147.81-12.24-41.78-10.68-83.83,7.97-123.87,17.73-38.08,47.63-60.77,90.17-62.73,43.7-2.01,76.85,16.97,97.8,55.76,15.27,28.27,19.01,58.98,16.96,90.46-1.98,30.25-10.88,58.69-25.02,85.49-3.46,6.57-5.68,7.61-12.86,5.51-21.57-6.31-40.38-17.09-55.22-34.26-5.53-6.4-5.92-7.99-2.13-15.58,12.42-24.87,14.67-50.9,8.69-77.76-1.03-4.63-3.08-9.12-5.23-13.4-3.61-7.18-9.4-11.73-17.73-11.79-8.61-.06-14.88,4.27-19.05,11.62-5.2,9.17-7.05,19.3-8.1,29.62-6.09,60.16,33.61,104.06,76.72,122.27,14.76,6.23,29.95,10.55,46.04,9.42,22.8-1.6,41.2-12.43,56.05-29.31,20.04-22.79,31.28-49.76,35.12-79.63,8.44-65.64-13.86-121.29-56.44-170.12-6.99-8.01-14.96-15.34-20.89-24.06-11.63-17.1-7.91-39.87,7.57-53.3,15.57-13.52,39.09-13.99,54.47-.46,17.22,15.15,31.29,33.1,44.42,51.82,29.08,41.5,47.75,87.11,54.26,137.47,1.34,10.38,1.78,20.88,2.56,30.38Z"/>
    <path class="cls-1" d="M1204.71,608.74c-45.66-.32-87.91-11.16-124.07-40.05-34.19-27.32-58.32-61.39-66.51-105.2-5.37-28.71,.51-55.95,12.88-81.86,20.39-42.69,54.78-69.88,98.12-86.7,29.26-11.35,59.27-15.79,89.98-6.88,31.79,9.23,56.75,27.2,68.66,59.33,11.38,30.7,6.13,59.99-10.15,87.63-14.01,23.79-33.83,42.23-55.6,58.74-5.17,3.92-10.31,8.03-16,11.04-3.57,1.89-8.35,3.15-12.22,2.5-23.37-3.95-43.99-13.82-61.16-30.42-7.6-7.35-7.45-11.33,1.09-17.5,19.84-14.36,39.45-29.02,56.55-46.65,6.12-6.31,12.02-12.98,17.03-20.17,10.08-14.48,5.43-25.24-11.93-28.23-16.4-2.82-31.78,1.03-46.36,8.44-18.05,9.18-33.02,21.74-42.65,39.95-15.24,28.83-10.2,57.77,14.19,79.5,29.5,26.28,64.63,36.02,103.4,33.87,33.4-1.85,62.11-14.79,86.13-38.14,8.57-8.33,18.5-14.36,30.76-14.99,17.24-.89,30.74,6.2,38.71,21.47,8.32,15.95,7.67,32.5-4.08,46.32-7.73,9.09-17.63,16.73-27.61,23.45-36.09,24.31-75.9,38.99-119.31,43.44-6.62,.68-13.3,.75-19.84,1.1Z"/>
    <path class="cls-1" d="M944.19,612.52c-44.21,.42-86.35-8.26-124.98-30.58-33.99-19.64-60.87-46.26-77.78-82.06-20.02-42.39-17.05-84.62,5.15-124.73,30.42-54.96,79.12-84.13,140.74-91.46,30.07-3.58,58.51,3.39,82.9,22.16,28.02,21.56,38.81,50.8,34.51,85.43-3.94,31.73-20.87,56.86-43.61,78.09-13.59,12.69-28.66,23.79-43.02,35.66-5.37,4.44-11.31,5.13-17.82,3.32-21.7-6.03-40.13-17.54-55.88-33.45-4.81-4.85-4.28-9.67,1.21-13.96,20.99-16.4,42.27-32.51,60.41-52.16,5.49-5.94,10.46-12.57,14.54-19.54,6.36-10.84,2.46-19.3-9.69-22.89-12.14-3.59-24.23-2.26-35.9,1.63-30.92,10.31-53.67,29.25-61.82,62.12-4.95,19.94-.48,38.2,13.37,53.44,24.16,26.56,54.68,41.34,90.02,46.05,29.78,3.97,59.1,.43,88.02-7.19,9.6-2.53,10.01-2.45,15.33,6.04,11.5,18.37,25.82,34.25,42.37,48.17,6.68,5.62,6.27,9.58-1.88,13-30.95,13.02-63.17,20.84-96.72,22.84-6.47,.39-12.98,.06-19.47,.06Z"/>
    <path class="cls-1" d="M169.07,439.79c1.71-43.76,12.8-84.56,32.46-123.02,17.43-34.09,40.41-64.16,67.32-91.29,14.01-14.12,32.62-17.02,48.76-7.84,16.2,9.2,23.74,28.01,18.85,46.91-2.23,8.62-6.87,15.79-13.11,22.04-18.92,18.93-35.9,39.34-48.19,63.33-20.84,40.7-29.38,83.46-20.04,128.68,6.19,29.95,19.95,56.37,41.58,78.31,12.72,12.9,28.31,20.28,46.24,22.57,4.47,.57,7.61,2.45,10.33,6.04,15.54,20.6,33.66,38.6,54.64,53.73,2.44,1.76,5.64,5.35,5.22,7.44-.52,2.6-4.07,5.52-6.94,6.59-46.04,17.2-90.67,13.44-133.16-10.9-40.86-23.42-67.15-59.43-84.88-102.21-13.36-32.26-19.14-66.02-19.08-100.37Z"/>
    <path class="cls-1" d="M774.14,810.23c3.15-9.57,6.3-19.14,9.45-28.7,1.87-5.69,3.68-11.4,5.62-17.07,2.3-6.73,8-10.77,15.11-10.85,7.11-.08,12.57,3.84,14.91,11,4.44,13.6,8.75,27.24,13.13,40.86,.5,1.56,1.07,3.1,2.08,5.98,1-2.7,1.67-4.26,2.18-5.88,4.37-13.96,8.67-27.95,13.07-41.9,2.74-8.67,9.13-13.15,16.63-11.86,9.36,1.62,14.03,9.98,10.64,19.67-5.22,14.9-10.7,29.72-16.06,44.57-3.73,10.32-7.39,20.67-11.21,30.96-2.91,7.84-7.71,11.14-15.39,10.89-7.4-.24-11.82-3.78-14.41-11.54-4.74-14.2-9.46-28.41-14.2-42.61-.4-1.2-.92-2.35-1.72-4.37-4.58,13.23-8.87,25.62-13.15,38.01-1.19,3.46-2.27,6.96-3.54,10.39-2.43,6.55-7.64,10.19-14.46,10.24-7.21,.06-12.51-3.38-14.95-10.23-9.23-25.86-18.39-51.74-27.46-77.65-2.79-7.99,.63-15.04,8.19-17.72,7.82-2.78,15.69,.67,18.52,8.83,4.31,12.41,8.1,25,12.12,37.52,1.22,3.79,2.46,7.58,3.69,11.37,.4,.04,.8,.07,1.2,.11Z"/>
    <path class="cls-1" d="M567.9,815.71c5.39,15.05,21.52,21.65,37.67,16.01,2.94-1.03,5.73-2.65,8.34-4.38,6.7-4.43,15.01-3.65,19.24,2.03,4.68,6.28,3.21,13.73-3.94,19.07-11.33,8.46-24.43,11.05-38.17,10.75-26.9-.59-48.12-17.96-53.26-43.24-7.39-36.38,21.08-68.39,58.49-65.78,26.85,1.88,46.21,20.34,49.26,47.02,.21,1.81,.22,3.66,.12,5.48-.44,8.29-5.04,12.85-13.35,12.9-19.47,.13-38.94,.11-58.41,.14-1.79,0-3.58,0-6,0Zm48.16-21.97c-1.89-10.85-11.32-17.62-23.78-17.6-12.06,.02-22.64,7.53-24.32,17.6h48.1Z"/>
    <path class="cls-1" d="M1133.53,802.27c9.89,10.93,19.29,21.26,28.6,31.66,1.65,1.84,3.34,3.8,4.35,6,2.69,5.9,.69,12.57-4.4,15.91-6.1,4-15,2.91-20.03-2.77-8.94-10.09-17.72-20.32-26.55-30.5-.96-1.11-1.83-2.3-2.63-3.3-4.17,2.14-5.32,5.01-5.15,8.9,.23,5.31,.1,10.65-.03,15.97-.21,8.53-5.8,13.97-14.28,14.06-8.41,.08-14-5.36-14.02-14.12-.06-40.77-.04-81.55,.02-122.32,.01-8.53,5.75-14.23,14-14.3,8.54-.07,14.26,5.51,14.31,14.42,.11,18.64,.03,37.28,.03,55.92,0,3.78,0,7.56,0,11.34,.5,.23,.99,.47,1.49,.7,6.2-6.41,12.4-12.83,18.62-19.23,4.64-4.77,9.23-9.6,14-14.24,4.5-4.38,9.88-5.99,16.05-4.12,10.06,3.06,12.9,14.41,5.35,21.7-9.69,9.34-19.49,18.58-29.72,28.31Z"/>
    <path class="cls-1" d="M936.17,750.12c30.2-.48,54.25,22.94,54.94,53.5,.69,30.48-23.14,54.98-54.02,55.53-30.65,.55-55.36-22.76-55.77-52.6-.43-31.69,23.12-55.92,54.85-56.43Zm26.44,54.43c.05-15.04-11.26-27.1-25.43-27.11-15.28-.01-26.79,11.7-26.93,27.41-.14,14.89,11.16,26.66,25.75,26.84,14.88,.19,26.55-11.72,26.61-27.14Z"/>
    <path class="cls-1" d="M456.06,760.61c14.27-12.43,30.26-13.52,46.47-6.62,15.59,6.64,21.86,20.3,22.17,36.64,.33,17.48,.14,34.96,.1,52.45-.02,9.3-5.84,15.21-14.78,15.22-8.41,0-14.05-6.04-14.1-15.34-.08-15.32,0-30.64-.07-45.95-.05-11.49-6.36-18.76-16.9-19.67-11.17-.97-20.35,5.5-22.12,16.37-.96,5.86-.75,11.92-.82,17.9-.12,10.65,.02,21.31-.07,31.97-.07,8.65-5.91,14.54-14.32,14.63-8.52,.09-14.13-5.51-14.17-14.57-.12-24.81-.1-49.62-.13-74.42-.01-10.07,2.74-14.88,9.73-17.05,7.18-2.23,13.53,.56,19,8.45Z"/>
    <path class="cls-1" d="M667.9,751.18c0-4.77-.02-9.24,0-13.7,.05-9.77,5.74-16.08,14.52-16.12,8.48-.05,14.21,6.53,14.23,16.35,.01,4.31,0,8.63,0,13.86,3.52,0,6.76-.13,9.98,.03,8.36,.41,14.13,6.03,14.26,13.73,.13,7.9-4.82,13.3-12.74,13.68-3.61,.17-7.24,.03-11.48,.03,0,9.37,0,18.14,0,26.9,0,4.33-.02,8.65,.04,12.98,.12,8.64,3.24,11.99,11.91,12.68,5.28,.42,9.28,2.72,11.29,7.68,2.09,5.15,1.91,10.41-2.22,14.37-2.23,2.15-5.7,4.23-8.6,4.22-7.05-.03-14.43-.23-21.07-2.31-13.28-4.17-19.87-14.95-20.04-30.65-.16-14.95-.04-29.91-.04-45.47-6.16-.32-12.65,.02-16.11-5.93-1.5-2.59-2.46-5.95-2.37-8.92,.26-8.54,5.27-12.09,18.41-13.42Z"/>
    <path class="cls-1" d="M1032.68,762.86c5.03-6.21,10.66-10.36,18.16-11.51,8.95-1.37,14.75,2.64,16.2,11.27,1.42,8.43-3.31,15.41-11.72,16.69-11.43,1.74-19.57,7.3-22.38,18.92-.84,3.49-.61,7.26-.63,10.91-.08,11.31,.04,22.62-.09,33.93-.1,8.67-5.42,14.51-13.43,15.14-8.96,.7-15.31-5.15-15.33-14.35-.06-25.78-.05-51.55,0-77.33,.01-8.02,4.19-13.29,11.41-14.76,7.04-1.44,13.54,1.94,16.71,8.69,.27,.58,.54,1.17,1.12,2.41Z"/>
    <path d="M616.06,793.74h-48.1c1.68-10.08,12.26-17.58,24.32-17.6,12.46-.02,21.89,6.76,23.78,17.6Z"/>
    <path d="M962.62,804.55c-.05,15.41-11.73,27.32-26.61,27.14-14.59-.18-25.89-11.96-25.75-26.84,.14-15.71,11.65-27.42,26.93-27.41,14.17,0,25.48,12.07,25.43,27.11Z"/>
  </g>
</svg>